<?xml version="1.0" encoding="UTF-8"?>
<svg xmlns="http://www.w3.org/2000/svg" xmlns:xlink="http://www.w3.org/1999/xlink"
  width="2000" height="3320" viewBox="0 0 2000 3320" role="img"
  aria-labelledby="jt-title jt-desc">
  <title id="jt-title">Journee type Aqua Blue Plongee - Regards croises Client et Moniteur</title>
  <desc id="jt-desc">Timeline journee type Aqua Blue, parcours client et moniteur synchronises.</desc>

  <defs>
    <style>
      @import url('https://fonts.googleapis.com/css2?family=Patrick+Hand:wght@400;700&amp;display=swap');
      text { font-family: 'Patrick Hand', cursive; fill: #243746; }
      .ink { stroke: #243746; stroke-linecap: round; stroke-linejoin: round; fill: none; }
      .title { font-size: 64px; font-weight: 700; }
      .h2 { font-size: 36px; font-weight: 700; }
      .body { font-size: 28px; }
      .small { font-size: 24px; }
      .time { font-size: 34px; font-weight: 700; }
      .col-hdr { font-size: 36px; font-weight: 700; }
    </style>
    <filter id="paperGrain" x="-20%" y="-20%" width="140%" height="140%">
      <feTurbulence type="fractalNoise" baseFrequency="0.05" numOctaves="2" seed="11"/>
      <feColorMatrix type="saturate" values="0"/>
      <feComponentTransfer><feFuncA type="table" tableValues="0 0.04"/></feComponentTransfer>
    </filter>
    <g id="sync-badge">
      <circle cx="0" cy="0" r="18" fill="#FFEFAD" stroke="#243746" stroke-width="2.6"/>
      <path d="M-7 0 L0 8 L10 -4" fill="none" stroke="#243746" stroke-width="2.2" stroke-linecap="round"/>
    </g>
  </defs>

  <rect width="2000" height="3320" fill="#FCFBF9"/>
  <rect width="2000" height="3320" fill="#FCFBF9" filter="url(#paperGrain)" opacity="0.35"/>

  <!-- Guides colonnes (non imprimes si export) -->
  <g opacity="0.12" aria-hidden="true">
    <rect x="60" y="250" width="800" height="2720" fill="#62BEC8"/>
    <rect x="900" y="250" width="200" height="2720" fill="#FFEFAD"/>
    <rect x="1140" y="250" width="800" height="2720" fill="#0B3448"/>
  </g>

  <!-- Titre -->
  <g transform="translate(120 40)">
    <text x="0" y="70" class="title" style="fill:none;stroke:#243746;stroke-width:5;stroke-linejoin:round;">Une journee immersive chez Aqua Blue Plongee</text>
    <text x="0" y="70" class="title" style="fill:#F28C00;">Une journee immersive chez Aqua Blue Plongee</text>
    <text x="0" y="124" class="h2" style="fill:#0C9AA7;">Regards croises Client &amp; Moniteur</text>
  </g>

  <text x="60" y="210" class="col-hdr" style="fill:#0C9AA7;">PARCOURS CLIENT</text>
  <text x="1940" y="210" class="col-hdr" style="fill:#0B3448;" text-anchor="end">PARCOURS MONITEUR</text>

  <!-- Axe central -->
  <path class="ink" stroke="#62BEC8" stroke-width="4" d="M1000 280 L1000 2860"/>

  <!-- ========== ROW 08:30 y=300 h=260 ========== -->
  <g id="row-0830">
    <rect x="940" y="416" width="120" height="56" rx="12" fill="#FCFBF9" stroke="#243746" stroke-width="3"/>
    <text x="1000" y="454" class="time" text-anchor="middle">08:30</text>
    <g transform="translate(1140 300)">
      <rect x="0" y="0" width="800" height="260" fill="none"/>
      <path class="ink" stroke-width="3.4" style="fill:#0B3448;fill-opacity:0.92;"
        d="M18 12 C40 4 72 4 108 8 L780 10 C818 12 842 34 846 68 L848 228 C844 248 820 256 780 258 L100 260 C64 256 36 232 22 196 L12 60 C10 36 12 22 18 12 Z"/>
      <text x="36" y="58" class="h2" style="fill:#FCFBF9;">Ouverture club</text>
      <text x="36" y="102" class="body" style="fill:#A2D2FF;">Preparation bateau</text>
      <text x="36" y="140" class="body" style="fill:#A2D2FF;">Sortie materiel</text>
      <text x="36" y="178" class="body" style="fill:#A2D2FF;">Bacs rin&#231;age desinfectes</text>
      <text x="36" y="216" class="body" style="fill:#A2D2FF;">Fiches DP pretes</text>
      <image href="../../../../dejeps/facilitationGraphique/par-theme/signalisation-navigation/bateau-plongee.svg" x="708" y="24" width="68" height="68"/>
    </g>
    <path class="ink" stroke="#6A97B2" stroke-width="2.4" opacity="0.8" d="M1100 430 C1060 430 1020 438 1000 444"/>
  </g>

  <!-- ========== ROW 09:00 y=600 h=200 sync ========== -->
  <g id="row-0900">
    <rect x="940" y="666" width="120" height="56" rx="12" fill="#FFEFAD" stroke="#243746" stroke-width="3"/>
    <text x="1000" y="704" class="time" text-anchor="middle">09:00</text>
    <use href="#sync-badge" transform="translate(1000 736)"/>
    <g transform="translate(60 600)">
      <rect x="0" y="0" width="800" height="200" fill="none"/>
      <path class="ink" stroke-width="3.4" style="fill:#CFE8EF;fill-opacity:0.88;"
        d="M16 10 C38 4 70 4 106 8 L778 10 C816 12 840 34 844 68 L846 168 C842 188 818 196 778 198 L98 200 C62 196 34 172 20 136 L10 56 C8 32 10 18 16 10 Z"/>
      <text x="32" y="54" class="h2" style="fill:#0C9AA7;">Accueil &amp; admin</text>
      <text x="32" y="98" class="body">Formalites administratives</text>
      <text x="32" y="136" class="body">Recuperation du materiel</text>
      <image href="../../../../dejeps/facilitationGraphique/par-theme/materiel/combinaison.svg" x="708" y="20" width="60" height="60"/>
    </g>
    <g transform="translate(1140 600)">
      <rect x="0" y="0" width="800" height="200" fill="none"/>
      <path class="ink" stroke-width="3.4" style="fill:#0B3448;fill-opacity:0.92;"
        d="M18 12 C40 4 72 4 108 8 L780 10 C818 12 842 34 846 68 L846 168 C842 188 818 196 780 198 L100 200 C64 196 36 172 22 136 L12 56 C10 32 12 18 18 12 Z"/>
      <text x="36" y="54" class="h2" style="fill:#FCFBF9;">Groupe vers le bateau</text>
      <text x="36" y="98" class="body" style="fill:#A2D2FF;">Verification greement</text>
      <text x="36" y="136" class="body" style="fill:#A2D2FF;">Controle installation</text>
      <image href="../../../../dejeps/facilitationGraphique/par-theme/signalisation-navigation/bouee.svg" x="708" y="20" width="60" height="60"/>
    </g>
    <path class="ink" stroke="#6A97B2" stroke-width="2.4" d="M860 700 C900 700 920 700 940 694"/>
    <path class="ink" stroke="#6A97B2" stroke-width="2.4" d="M1140 700 C1100 700 1080 700 1060 694"/>
  </g>

  <!-- ========== ROW 09:30 y=880 h=300 ========== -->
  <g id="row-0930">
    <rect x="940" y="986" width="120" height="56" rx="12" fill="#FCFBF9" stroke="#243746" stroke-width="3"/>
    <text x="1000" y="1024" class="time" text-anchor="middle">09:30</text>
    <g transform="translate(60 880)">
      <rect x="0" y="0" width="800" height="300" fill="none"/>
      <path class="ink" stroke-width="3.4" style="fill:#CFE8EF;fill-opacity:0.88;"
        d="M16 10 C38 4 70 4 106 8 L778 10 C816 12 840 34 844 68 L846 268 C842 288 818 296 778 298 L98 300 C62 296 34 272 20 236 L10 56 C8 32 10 18 16 10 Z"/>
      <text x="32" y="54" class="h2" style="fill:#0C9AA7;">Plongee matinale</text>
      <text x="32" y="98" class="body">Briefing - Depart 09:30</text>
      <text x="32" y="136" class="body">Trajet bateau ~1h30</text>
      <text x="32" y="174" class="body">Immersion commune 10:00</text>
      <text x="32" y="212" class="body">Retour port ~11:00</text>
      <text x="32" y="250" class="small" style="fill:#0C9AA7;">Consignes d'accostage</text>
      <image href="../../../../dejeps/facilitationGraphique/par-theme/plongee/plongeur.svg" x="708" y="20" width="64" height="64"/>
    </g>
    <g transform="translate(1140 880)">
      <rect x="0" y="0" width="800" height="300" fill="none"/>
      <path class="ink" stroke-width="3.4" style="fill:#0B3448;fill-opacity:0.92;"
        d="M18 12 C40 4 72 4 108 8 L780 10 C818 12 842 34 846 68 L846 268 C842 288 818 296 780 298 L100 300 C64 296 36 272 22 236 L12 56 C10 32 12 18 18 12 Z"/>
      <text x="36" y="54" class="h2" style="fill:#FCFBF9;">Encadrement matin</text>
      <text x="36" y="98" class="body" style="fill:#A2D2FF;">Depart site 09:30</text>
      <text x="36" y="136" class="body" style="fill:#A2D2FF;">Immersion commune 10:00</text>
      <text x="36" y="174" class="body" style="fill:#A2D2FF;">Supervision palanquees</text>
      <image href="../../../../dejeps/facilitationGraphique/par-theme/materiel/sifflet.svg" x="708" y="20" width="60" height="60"/>
    </g>
    <path class="ink" stroke="#6A97B2" stroke-width="2.4" d="M860 1030 C900 1020 920 1014 940 1010"/>
    <path class="ink" stroke="#6A97B2" stroke-width="2.4" d="M1140 1030 C1100 1020 1080 1014 1060 1010"/>
  </g>

  <!-- ========== ROW 11:15 y=1260 h=200 client only ========== -->
  <g id="row-1115">
    <rect x="940" y="1326" width="120" height="56" rx="12" fill="#FCFBF9" stroke="#243746" stroke-width="3"/>
    <text x="1000" y="1364" class="time" text-anchor="middle">11:15</text>
    <g transform="translate(60 1260)">
      <rect x="0" y="0" width="800" height="200" fill="none"/>
      <path class="ink" stroke-width="3.4" style="fill:#CFE8EF;fill-opacity:0.88;"
        d="M16 10 C38 4 70 4 106 8 L778 10 C816 12 840 34 844 68 L846 168 C842 188 818 196 778 198 L98 200 C62 196 34 172 20 136 L10 56 C8 32 10 18 16 10 Z"/>
      <text x="32" y="54" class="h2" style="fill:#0C9AA7;">Logistique retour</text>
      <text x="32" y="98" class="body">Rin&#231;age du materiel</text>
      <text x="32" y="136" class="body">Carnet de plongee signe</text>
      <image href="../../../../dejeps/facilitationGraphique/par-theme/materiel/bouteille.svg" x="708" y="20" width="56" height="56"/>
    </g>
    <path class="ink" stroke="#6A97B2" stroke-width="2.4" d="M860 1360 C900 1356 920 1354 940 1350"/>
  </g>

  <!-- ========== ROW 12:00 y=1500 h=200 ========== -->
  <g id="row-1200">
    <rect x="940" y="1566" width="120" height="56" rx="12" fill="#FCFBF9" stroke="#243746" stroke-width="3"/>
    <text x="1000" y="1604" class="time" text-anchor="middle">12:00</text>
    <g transform="translate(60 1500)">
      <rect x="0" y="0" width="800" height="200" fill="none"/>
      <path class="ink" stroke-width="3.4" style="fill:#FFEFAD;fill-opacity:0.75;"
        d="M16 10 C38 4 70 4 106 8 L778 10 C816 12 840 34 844 68 L846 168 C842 188 818 196 778 198 L98 200 C62 196 34 172 20 136 L10 56 C8 32 10 18 16 10 Z"/>
      <text x="32" y="54" class="h2">Pause dejeuner</text>
      <text x="32" y="98" class="body">12:00 - 14:00 - Temps libre</text>
      <image href="../../../../dejeps/facilitationGraphique/par-theme/milieu-marin/plage.svg" x="708" y="20" width="56" height="56"/>
    </g>
    <g transform="translate(1140 1500)">
      <rect x="0" y="0" width="800" height="200" fill="none"/>
      <path class="ink" stroke-width="3.4" style="fill:#0B3448;fill-opacity:0.92;"
        d="M18 12 C40 4 72 4 108 8 L780 10 C818 12 842 34 846 68 L846 168 C842 188 818 196 780 198 L100 200 C64 196 36 172 22 136 L12 56 C10 32 12 18 18 12 Z"/>
      <text x="36" y="54" class="h2" style="fill:#FCFBF9;">Pause courte equipe</text>
      <text x="36" y="98" class="body" style="fill:#A2D2FF;">12:00 - 13:30</text>
      <text x="36" y="136" class="small" style="fill:#FFEFAD;">Accueil apres-midi des 13:30</text>
    </g>
    <path class="ink" stroke="#6A97B2" stroke-width="2.4" d="M860 1600 C900 1600 920 1600 940 1598"/>
    <path class="ink" stroke="#6A97B2" stroke-width="2.4" d="M1140 1600 C1100 1600 1080 1600 1060 1598"/>
  </g>

  <!-- ========== ROW 13:30 y=1740 h=200 ========== -->
  <g id="row-1330">
    <rect x="940" y="1806" width="120" height="56" rx="12" fill="#FCFBF9" stroke="#243746" stroke-width="3"/>
    <text x="1000" y="1844" class="time" text-anchor="middle">13:30</text>
    <g transform="translate(60 1740)">
      <rect x="0" y="0" width="800" height="200" fill="none"/>
      <path class="ink" stroke-width="3.4" style="fill:#CFE8EF;fill-opacity:0.88;"
        d="M16 10 C38 4 70 4 106 8 L778 10 C816 12 840 34 844 68 L846 168 C842 188 818 196 778 198 L98 200 C62 196 34 172 20 136 L10 56 C8 32 10 18 16 10 Z"/>
      <text x="32" y="54" class="h2" style="fill:#0C9AA7;">Preparation PM</text>
      <text x="32" y="98" class="body">Equipement des 14:00</text>
      <image href="../../../../dejeps/facilitationGraphique/par-theme/materiel/masque.svg" x="708" y="20" width="56" height="56"/>
    </g>
    <g transform="translate(1140 1740)">
      <rect x="0" y="0" width="800" height="200" fill="none"/>
      <path class="ink" stroke-width="3.4" style="fill:#0B3448;fill-opacity:0.92;"
        d="M18 12 C40 4 72 4 108 8 L780 10 C818 12 842 34 846 68 L846 168 C842 188 818 196 780 198 L100 200 C64 196 36 172 22 136 L12 56 C10 32 12 18 18 12 Z"/>
      <text x="36" y="54" class="h2" style="fill:#FCFBF9;">Accueil apres-midi</text>
      <text x="36" y="98" class="body" style="fill:#A2D2FF;">Flux clients des 13:30</text>
      <text x="36" y="136" class="body" style="fill:#A2D2FF;">Remplissage bouteilles (equipe)</text>
      <image href="../../../../dejeps/facilitationGraphique/par-theme/materiel/detendeur.svg" x="708" y="20" width="56" height="56"/>
    </g>
    <path class="ink" stroke="#6A97B2" stroke-width="2.4" d="M860 1840 C900 1840 920 1840 940 1838"/>
    <path class="ink" stroke="#6A97B2" stroke-width="2.4" d="M1140 1840 C1100 1840 1080 1840 1060 1838"/>
  </g>

  <!-- ========== ROW 14:30 y=1980 h=240 ========== -->
  <g id="row-1430">
    <rect x="940" y="2066" width="120" height="56" rx="12" fill="#FCFBF9" stroke="#243746" stroke-width="3"/>
    <text x="1000" y="2104" class="time" text-anchor="middle">14:30</text>
    <g transform="translate(60 1980)">
      <rect x="0" y="0" width="800" height="240" fill="none"/>
      <path class="ink" stroke-width="3.4" style="fill:#CFE8EF;fill-opacity:0.88;"
        d="M16 10 C38 4 70 4 106 8 L778 10 C816 12 840 34 844 68 L846 208 C842 228 818 236 778 238 L98 240 C62 236 34 212 20 176 L10 56 C8 32 10 18 16 10 Z"/>
      <text x="32" y="54" class="h2" style="fill:#0C9AA7;">Navigation &amp; exploration</text>
      <text x="32" y="98" class="body">Briefing - Trajet bateau</text>
      <text x="32" y="136" class="body">Plongee 15:00 - 15:50</text>
      <text x="32" y="174" class="small" style="fill:#0C9AA7;">Demontage conseille a bord</text>
      <image href="../../../../dejeps/facilitationGraphique/par-theme/signalisation-navigation/bateau-plongee.svg" x="708" y="20" width="64" height="64"/>
    </g>
    <g transform="translate(1140 1980)">
      <rect x="0" y="0" width="800" height="240" fill="none"/>
      <path class="ink" stroke-width="3.4" style="fill:#0B3448;fill-opacity:0.92;"
        d="M18 12 C40 4 72 4 108 8 L780 10 C818 12 842 34 846 68 L846 208 C842 228 818 236 780 238 L100 240 C64 236 36 212 22 176 L12 56 C10 32 12 18 18 12 Z"/>
      <text x="36" y="54" class="h2" style="fill:#FCFBF9;">Encadrement PM</text>
      <text x="36" y="98" class="body" style="fill:#A2D2FF;">Immersion apres-midi</text>
      <text x="36" y="136" class="body" style="fill:#A2D2FF;">Supervision palanquees</text>
      <image href="../../../../dejeps/facilitationGraphique/par-theme/plongee/plongeur.svg" x="708" y="20" width="60" height="60"/>
    </g>
    <path class="ink" stroke="#6A97B2" stroke-width="2.4" d="M860 2100 C900 2096 920 2094 940 2090"/>
    <path class="ink" stroke="#6A97B2" stroke-width="2.4" d="M1140 2100 C1100 2096 1080 2094 1060 2090"/>
  </g>

  <!-- ========== ROW 15:30 y=2300 h=260 sync bapteme ========== -->
  <g id="row-1530">
    <rect x="940" y="2386" width="120" height="56" rx="12" fill="#FFEFAD" stroke="#243746" stroke-width="3"/>
    <text x="1000" y="2424" class="time" text-anchor="middle">15:30</text>
    <use href="#sync-badge" transform="translate(1000 2456)"/>
    <g transform="translate(60 2300)">
      <rect x="0" y="0" width="800" height="260" fill="none"/>
      <path class="ink" stroke-width="3.4" style="fill:#FFB7B2;fill-opacity:0.62;"
        d="M16 10 C38 4 70 4 106 8 L778 10 C816 12 840 34 844 68 L846 228 C842 248 818 256 778 258 L98 260 C62 256 34 232 20 196 L10 56 C8 32 10 18 16 10 Z"/>
      <text x="32" y="54" class="h2">Focus Bapteme</text>
      <text x="32" y="98" class="body">Arrivee client 15:30</text>
      <text x="32" y="136" class="body">Briefing bapteme</text>
      <image href="../../../../dejeps/facilitationGraphique/par-theme/faune/poisson.svg" x="708" y="20" width="52" height="52"/>
    </g>
    <g transform="translate(1140 2300)">
      <rect x="0" y="0" width="800" height="260" fill="none"/>
      <path class="ink" stroke-width="3.4" style="fill:#0B3448;fill-opacity:0.92;"
        d="M18 12 C40 4 72 4 108 8 L780 10 C818 12 842 34 846 68 L846 228 C842 248 818 256 780 258 L100 260 C64 256 36 232 22 196 L12 56 C10 32 12 18 18 12 Z"/>
      <text x="36" y="54" class="h2" style="fill:#FCFBF9;">Bapteme encadre</text>
      <text x="36" y="98" class="body" style="fill:#A2D2FF;">Preparation 15:30</text>
      <text x="36" y="136" class="body" style="fill:#A2D2FF;">Immersion 16:30 - 17:30</text>
      <text x="36" y="174" class="body" style="fill:#A2D2FF;">Supervision dediee</text>
      <image href="../../../../dejeps/facilitationGraphique/par-theme/materiel/gilet-stab.svg" x="708" y="20" width="60" height="60"/>
    </g>
    <path class="ink" stroke="#6A97B2" stroke-width="2.4" d="M860 2430 C900 2426 920 2422 940 2418"/>
    <path class="ink" stroke="#6A97B2" stroke-width="2.4" d="M1140 2430 C1100 2426 1080 2422 1060 2418"/>
  </g>

  <!-- ========== ROW 17:30 y=2620 h=240 ========== -->
  <g id="row-1730">
    <rect x="940" y="2706" width="120" height="56" rx="12" fill="#FCFBF9" stroke="#243746" stroke-width="3"/>
    <text x="1000" y="2744" class="time" text-anchor="middle">17:30</text>
    <g transform="translate(1140 2620)">
      <rect x="0" y="0" width="800" height="240" fill="none"/>
      <path class="ink" stroke-width="3.4" style="fill:#0B3448;fill-opacity:0.92;"
        d="M18 12 C40 4 72 4 108 8 L780 10 C818 12 842 34 846 68 L846 208 C842 228 818 236 780 238 L100 240 C64 236 36 212 22 176 L12 56 C10 32 12 18 18 12 Z"/>
      <text x="36" y="54" class="h2" style="fill:#FCFBF9;">Fermeture club</text>
      <text x="36" y="98" class="body" style="fill:#A2D2FF;">Nettoyage &amp; rangement</text>
      <text x="36" y="136" class="body" style="fill:#A2D2FF;">Stockage materiel</text>
      <text x="36" y="174" class="body" style="fill:#A2D2FF;">Planning equipe J+1</text>
      <image href="../../../../dejeps/facilitationGraphique/par-theme/facilitation/postit.svg" x="708" y="20" width="52" height="52"/>
    </g>
    <path class="ink" stroke="#6A97B2" stroke-width="2.4" d="M1140 2740 C1100 2736 1080 2732 1060 2728"/>
  </g>

  <!-- Pied de page -->
  <g transform="translate(60 2920)">
    <path class="ink" stroke-width="3.2" style="fill:#FFB7B2;fill-opacity:0.45;"
      d="M16 10 C40 4 80 4 120 8 L1840 10 C1876 12 1898 32 1900 60 L1902 130 C1898 154 1874 166 1840 168 L110 170 C72 166 44 146 28 118 L12 52 C10 30 12 18 16 10 Z"/>
    <text x="40" y="56" class="h2">Reflexes cles de securite - toute la journee</text>
    <text x="40" y="100" class="body">Desinfection bacs - Fiches DP a jour - Remplissage preventif des bouteilles</text>
  </g>

  <g transform="translate(60 3080)">
    <circle cx="18" cy="18" r="12" fill="#FFEFAD" stroke="#243746" stroke-width="2.4"/>
    <text x="42" y="24" class="small">Point de synchronisation Client / Moniteur</text>
    <rect x="0" y="44" width="24" height="18" rx="3" fill="#CFE8EF" stroke="#243746" stroke-width="2"/>
    <text x="36" y="58" class="small">Parcours client</text>
    <rect x="280" y="44" width="24" height="18" rx="3" fill="#0B3448" stroke="#243746" stroke-width="2"/>
    <text x="316" y="58" class="small">Parcours moniteur</text>
    <rect x="560" y="44" width="24" height="18" rx="3" fill="#FFB7B2" stroke="#243746" stroke-width="2"/>
    <text x="596" y="58" class="small">Focus bapteme</text>
  </g>

  <text x="60" y="3260" class="small" style="fill:#6A97B2;">v2.1 layout rangees - facilitation graphique - Aqua Blue Plongee</text>
</svg>